<svg width="161" height="161" viewBox="0 0 161 161" fill="none" xmlns="http://www.w3.org/2000/svg">
<circle cx="80.5" cy="80.5" r="80.5" fill="white"/>
<path d="M109.249 107.487L120.492 65.8557L124.866 49.6599H108.258H78.1909H77.87L86.6065 65.8557H86.8884H103.882L98.1965 86.9086L109.249 107.487Z" fill="#4F4C4C"/>
<path d="M40.3763 99.5056L36.0027 115.704H52.6126H86.4027L77.6684 99.5056H56.9884L64.0097 73.4979L52.9595 52.922L40.3763 99.5056Z" fill="#4F4C4C"/>
<path d="M54.6912 46.4177L101.967 134.446L107.494 113.981L60.0926 26.4207L54.6912 46.4177Z" fill="#FF6600"/>
<path d="M80.4299 8C72.5109 8 64.8955 9.28586 57.7593 11.6299C56.2783 12.1178 54.819 12.6512 53.3813 13.2302C48.8407 15.0538 44.5256 17.3198 40.4902 19.9826L43.5563 25.6898C47.5657 22.9923 51.8917 20.7372 56.4583 18.9591C57.9046 18.3953 59.3683 17.8662 60.8623 17.4043C67.0444 15.4918 73.6147 14.4597 80.4299 14.4597C116.95 14.4597 146.559 44.0648 146.559 80.5892C146.559 101.226 137.101 119.651 122.286 131.779L125.387 137.555C142.21 124.261 153.019 103.691 153.019 80.5892C153.019 40.4978 120.517 8 80.4299 8Z" fill="#4F4C4C"/>
<path d="M105.839 141.643C104.412 142.237 102.953 142.773 101.476 143.269C94.8625 145.485 87.7935 146.708 80.434 146.708C43.9117 146.708 14.3044 117.101 14.3044 80.5786C14.3044 59.3825 24.2899 40.5305 39.8004 28.4287L36.6974 22.6521C19.1746 35.9031 7.84692 56.9149 7.84692 80.5786C7.84692 120.668 40.3447 153.166 80.434 153.166C88.8994 153.166 97.0222 151.702 104.575 149.039C106.043 148.521 107.491 147.97 108.912 147.363C113.409 145.442 117.67 143.07 121.647 140.322L118.57 134.587C114.621 137.382 110.362 139.758 105.839 141.643Z" fill="#4F4C4C"/>
</svg>
